# xmcd
#
# Track frame offsets:
#	150
#	11784
#	24079
#	33585
#	45296
#	59529
#	73336
#	82714
#	95502
#	105580
#	118034
#	128532
#
# Disc length: 1866 seconds
#
# Revision: 0
# Processed by: cddbd v1.5.2PL0 Copyright (c) Steve Scherf et al.
# Submitted via: audiograbber 1.83.01
#
DISCID=9007480c
DTITLE=Various Artist - Cool Yule - Disc 2
DYEAR=2006
DGENRE=
TTITLE0=Chrsitmas Journey - Wayne Newton
TTITLE1=The Christmas Waltz - Nancy Wilson
TTITLE2=We Three Kings - Ella Fitzgerald
TTITLE3=I'd Like You For Christmas - Julie London
TTITLE4=Christmas Is - Lou Rawls
TTITLE5=Ring A Merry Bell - June Christy
TTITLE6=Let It Snow! Let It Snow! Let It Snow! - Bing Crosby
TTITLE7=Have Yourself A Merry Little Christmas - Bing Crosby
TTITLE8=Frosty The Snowman - Bing Crosby
TTITLE9=I'll Be Home For Christmas - Glen Campbell
TTITLE10=That's What I Want For Christmas - Nancy Wilson
TTITLE11=Merry Christmas Baby - Lou Rawls
EXTD=
EXTT0=
EXTT1=
EXTT2=
EXTT3=
EXTT4=
EXTT5=
EXTT6=
EXTT7=
EXTT8=
EXTT9=
EXTT10=
EXTT11=
PLAYORDER=
